<?xml version="1.0" encoding="UTF-8" standalone="no"?>
<svg
   xmlns:dc="http://purl.org/dc/elements/1.1/"
   xmlns:cc="http://creativecommons.org/ns#"
   xmlns:rdf="http://www.w3.org/1999/02/22-rdf-syntax-ns#"
   xmlns:svg="http://www.w3.org/2000/svg"
   xmlns="http://www.w3.org/2000/svg"
   viewBox="0 0 693.20001 131.10667"
   height="800"
   width="1200"
   xml:space="preserve"
   id="svg2"
   version="1.1"><metadata
     id="metadata8"><rdf:RDF><cc:Work
         rdf:about=""><dc:format>image/svg+xml</dc:format><dc:type
           rdf:resource="http://purl.org/dc/dcmitype/StillImage" /></cc:Work></rdf:RDF></metadata><defs
     id="defs6" /><g
     transform="matrix(1.3333333,0,0,-1.3333333,0,131.10667)"
     id="g10"><g
       transform="scale(0.1)"
       id="g12"><path
         id="path14"
         style="fill:#2f3844;fill-opacity:1;fill-rule:nonzero;stroke:none"
         d="M 425.797,983.352 0.00390625,737.504 154.73,648.168 v 0.008 l 271.086,156.515 -0.019,178.661" /><path
         id="path16"
         style="fill:#2f3844;fill-opacity:1;fill-rule:nonzero;stroke:none"
         d="m 546.879,561.574 -121.063,69.91 -121.086,-69.91 v 0 l 121.075,-69.902 121.074,69.902" /><path
         id="path18"
         style="fill:#b5da17;fill-opacity:1;fill-rule:nonzero;stroke:none"
         d="m 425.805,351.867 h 0.011 L 546.891,421.77 V 561.574 L 425.805,491.672 V 351.867" /><path
         id="path20"
         style="fill:#b4da18;fill-opacity:1;fill-rule:nonzero;stroke:none"
         d="M 696.891,648.176 V 335.168 L 425.816,178.664 h -0.011 V 0.00390625 L 851.617,245.832 V 737.504 L 696.891,648.176" /><path
         id="path22"
         style="fill:#8f988f;fill-opacity:1;fill-rule:nonzero;stroke:none"
         d="M 425.805,351.867 V 491.672 L 304.73,561.574 V 421.77 l 121.075,-69.903" /><path
         id="path24"
         style="fill:#8f988f;fill-opacity:1;fill-rule:nonzero;stroke:none"
         d="m 154.73,335.168 v 313 L 0.00390625,737.504 V 245.832 L 425.805,0.00390625 V 178.664 L 154.73,335.168" /><path
         id="path26"
         style="fill:#2f3844;fill-opacity:1;fill-rule:nonzero;stroke:none"
         d="m 1375.79,380.5 h -235.78 v 223.906 h 235.78 v -52.91 h 88.2 v 34.238 c 0,67.852 -22.9,84.805 -94.14,84.805 h -223.89 c -71.25,0 -93.3,-17.793 -93.3,-84.805 V 396.613 c 0,-66.152 21.21,-84.804 93.3,-84.804 h 223.89 c 71.24,0 94.14,17.812 94.14,84.804 v 41.895 h -88.2 V 380.5" /><path
         id="path28"
         style="fill:#2f3844;fill-opacity:1;fill-rule:nonzero;stroke:none"
         d="m 1674.99,670.539 h -88.2 v -358.73 h 369.76 v 66.992 h -281.56 v 291.738" /><path
         id="path30"
         style="fill:#2f3844;fill-opacity:1;fill-rule:nonzero;stroke:none"
         d="m 2431.4,380.5 h -289.2 v 223.887 h 289.2 z m -5.95,290.039 h -277.31 c -70.41,0 -93.3,-16.094 -93.3,-84.785 V 396.613 c 0,-67.851 22.05,-84.804 93.3,-84.804 h 277.31 c 70.39,0 93.29,16.953 93.29,84.804 v 189.141 c 0,68.691 -22.9,84.785 -93.29,84.785" /><path
         id="path32"
         style="fill:#2f3844;fill-opacity:1;fill-rule:nonzero;stroke:none"
         d="m 2982.13,378.82 h -249.34 v 291.719 h -87.34 V 396.613 c 0,-66.992 22.05,-84.804 93.29,-84.804 h 237.46 c 71.24,0 94.14,17.812 94.14,84.804 v 273.926 h -88.21 V 378.82" /><path
         id="path34"
         style="fill:#2f3844;fill-opacity:1;fill-rule:nonzero;stroke:none"
         d="m 3402.45,378.82 h -112.8 v 227.285 h 154.36 c 83.1,0 124.67,-34.785 124.67,-109.414 0,-93.3 -55.13,-117.871 -166.23,-117.871 m 40.71,291.719 h -241.71 v -358.73 h 219.66 c 157.74,0 237.46,59.355 237.46,180.644 0,111.094 -73.78,178.086 -215.41,178.086" /><path
         id="path36"
         style="fill:#2f3844;fill-opacity:1;fill-rule:nonzero;stroke:none"
         d="m 3776.02,311.809 h 87.35 v 358.75 h -87.35 v -358.75" /><path
         id="path38"
         style="fill:#2f3844;fill-opacity:1;fill-rule:nonzero;stroke:none"
         d="m 4137.21,455.969 80.57,149.277 83.96,-149.277 z m 43.25,214.57 -212.87,-358.73 h 87.35 l 44.96,78.867 h 237.46 l 44.95,-78.867 h 98.38 l -216.26,358.73 h -83.97" /><path
         id="path40"
         style="fill:#2f3844;fill-opacity:1;fill-rule:nonzero;stroke:none"
         d="M 4943.74,670.539 V 432.238 l -304.47,238.301 h -60.21 v -358.73 h 79.72 V 553.508 L 4962.4,311.809 h 60.21 v 358.73 h -78.87" /><path
         id="path42"
         style="fill:#2f3844;fill-opacity:1;fill-rule:nonzero;stroke:none"
         d="m 5142.84,644.426 v -17.727 h 8.53 c 4.64,0 8.05,0.637 10.25,1.906 2.18,1.27 3.28,3.489 3.28,6.629 0,3.332 -1.12,5.696 -3.35,7.09 -2.23,1.399 -5.72,2.102 -10.44,2.102 z m 32.43,-8.133 c 0,-3.859 -1.06,-7.031 -3.16,-9.523 -2.1,-2.5 -5.11,-4.141 -9.05,-4.922 L 5175,597.426 h -11.28 l -10.9,22.84 h -9.98 v -22.84 h -10.11 v 53.562 h 20.21 c 14.89,0 22.33,-4.902 22.33,-14.695 z m 14.51,2.691 c -1.97,4.934 -4.88,9.336 -8.73,13.196 -3.95,4.023 -8.39,7.058 -13.33,9.121 -4.95,2.062 -10.26,3.086 -15.96,3.086 -5.51,0 -10.72,-0.985 -15.62,-2.949 -4.9,-1.973 -9.23,-4.891 -13,-8.731 -4.02,-4.121 -7.11,-8.691 -9.26,-13.723 -2.14,-5.039 -3.21,-10.261 -3.21,-15.691 0,-5.43 1.02,-10.598 3.08,-15.496 2.06,-4.902 5.06,-9.317 9,-13.254 3.93,-3.945 8.38,-6.965 13.32,-9.063 4.95,-2.097 10.05,-3.156 15.3,-3.156 5.61,0 10.88,1.028 15.82,3.086 4.95,2.063 9.48,5.063 13.6,8.996 3.93,3.762 6.91,8.078 8.92,12.93 2.01,4.863 3.02,10.051 3.02,15.559 0,5.781 -0.99,11.14 -2.95,16.089 z m -19.83,28.032 c 5.73,-2.364 10.88,-5.871 15.43,-10.508 4.37,-4.465 7.74,-9.543 10.1,-15.227 2.37,-5.691 3.56,-11.687 3.56,-17.988 0,-6.563 -1.19,-12.656 -3.56,-18.25 -2.36,-5.605 -5.77,-10.598 -10.23,-14.973 -4.73,-4.55 -9.96,-8.027 -15.69,-10.437 -5.74,-2.403 -11.71,-3.613 -17.92,-3.613 -6.31,0 -12.31,1.21 -17.99,3.613 -5.7,2.41 -10.81,5.937 -15.36,10.574 -4.47,4.551 -7.88,9.629 -10.25,15.227 -2.36,5.601 -3.54,11.558 -3.54,17.859 0,6.301 1.22,12.336 3.68,18.113 2.44,5.785 5.99,11.039 10.63,15.766 4.38,4.461 9.34,7.801 14.9,10.039 5.56,2.234 11.53,3.348 17.93,3.348 6.47,0 12.57,-1.18 18.31,-3.543" /></g></g></svg>