<?xml version="1.0" encoding="UTF-8"?>
<!DOCTYPE svg PUBLIC "-//W3C//DTD SVG 1.1//EN" "http://www.w3.org/Graphics/SVG/1.1/DTD/svg11.dtd">
<svg xmlns="http://www.w3.org/2000/svg" version="1.1" width="345px" height="127px" style="shape-rendering:geometricPrecision; text-rendering:geometricPrecision; image-rendering:optimizeQuality; fill-rule:evenodd; clip-rule:evenodd" xmlns:xlink="http://www.w3.org/1999/xlink">
<g><path style="opacity:1" fill="#cc7628" d="M 82.5,69.5 C 87.7968,68.7255 93.1301,68.3921 98.5,68.5C 107.175,71.0088 112.675,76.6755 115,85.5C 115.667,93.5 115.667,101.5 115,109.5C 113.567,116.378 109.733,121.378 103.5,124.5C 102.448,124.649 101.448,124.483 100.5,124C 101.252,123.329 101.586,122.496 101.5,121.5C 108.167,111.16 110.334,99.827 108,87.5C 103.376,74.7749 94.876,71.2749 82.5,77C 79.5665,79.2643 77.3999,82.0976 76,85.5C 74.8116,93.4543 73.8116,101.454 73,109.5C 71.3996,118.094 66.5663,123.76 58.5,126.5C 53.8333,126.5 49.1667,126.5 44.5,126.5C 20.7858,117.778 5.78581,101.111 -0.5,76.5C -0.5,69.5 -0.5,62.5 -0.5,55.5C 1.18956,46.4236 4.35623,37.7569 9,29.5C 10.617,27.2368 12.4503,25.2368 14.5,23.5C 16.5869,22.4154 17.9202,20.7488 18.5,18.5C 40.0534,-0.712863 64.3867,-4.87953 91.5,6C 99.184,10.0142 106.017,15.1809 112,21.5C 116.227,30.0149 116.561,38.6816 113,47.5C 106.045,57.4892 96.5446,60.9892 84.5,58C 80.3253,56.4157 76.6587,54.0823 73.5,51C 62.5567,45.2034 54.0567,47.7034 48,58.5C 45.3168,69.2998 49.1501,76.7998 59.5,81C 62.9283,81.7011 66.2617,81.3677 69.5,80C 73.1486,75.5044 77.4819,72.0044 82.5,69.5 Z M 94.5,15.5 C 94.9731,16.9063 95.9731,17.573 97.5,17.5C 102.243,20.7513 105.743,25.0846 108,30.5C 108.882,35.3525 108.382,40.0192 106.5,44.5C 104.5,45.8333 102.833,47.5 101.5,49.5C 98.2883,50.8043 94.955,51.8043 91.5,52.5C 84.9379,50.4472 78.9379,47.2805 73.5,43C 63.8936,39.919 55.2269,41.419 47.5,47.5C 46.0937,47.9731 45.427,48.9731 45.5,50.5C 43.2542,52.6489 41.7542,55.3156 41,58.5C 38.8523,77.8399 47.3523,87.5066 66.5,87.5C 67.1098,88.391 67.4431,89.391 67.5,90.5C 51.5763,91.0682 41.4096,83.7349 37,68.5C 36.3592,46.2274 47.1926,35.7274 69.5,37C 74.4183,38.1258 78.7517,40.2925 82.5,43.5C 82.9731,44.9063 83.9731,45.573 85.5,45.5C 99.4794,49.7066 105.979,44.3733 105,29.5C 92.7811,13.6397 76.6144,7.13973 56.5,10C 46.6257,11.444 37.959,15.2774 30.5,21.5C 28.2512,22.0798 26.5846,23.4131 25.5,25.5C 24.5,25.8333 23.8333,26.5 23.5,27.5C 22.0937,27.9731 21.427,28.9731 21.5,30.5C 14.6836,38.0826 10.8503,47.0826 10,57.5C 9.37495,91.0665 25.5416,111.233 58.5,118C 50.4344,120.477 42.7677,119.477 35.5,115C 10.0666,98.2805 1.23323,75.1139 9,45.5C 19.5635,21.4673 38.0635,8.46734 64.5,6.5C 75.2248,7.34433 85.2248,10.3443 94.5,15.5 Z M 92.5,25.5 C 92.9731,26.9063 93.9731,27.573 95.5,27.5C 100.401,33.7886 99.2343,38.4553 92,41.5C 87.4486,38.8044 82.9486,35.971 78.5,33C 58.6748,25.8294 43.5082,31.3294 33,49.5C 26.1891,78.0374 37.3558,94.2041 66.5,98C 67.8333,98.6667 67.8333,99.3333 66.5,100C 42.4523,99.7981 28.7857,87.6314 25.5,63.5C 29.5065,36.9886 44.8398,24.822 71.5,27C 75.6624,28.2187 79.6624,29.7187 83.5,31.5C 83.9731,32.9063 84.9731,33.573 86.5,33.5C 88.2538,36.6343 90.7538,37.6343 94,36.5C 94.6667,34.8333 94.6667,33.1667 94,31.5C 76.0487,17.1301 57.2154,15.9635 37.5,28C 20.9031,42.2185 16.0697,59.7185 23,80.5C 25.2695,85.2564 28.1028,89.5898 31.5,93.5C 31.9731,94.9063 32.9731,95.573 34.5,95.5C 43.0315,103.794 53.3648,107.794 65.5,107.5C 65.5391,109.359 64.7058,110.692 63,111.5C 51.4502,110.909 41.2836,106.909 32.5,99.5C 31.1667,97.5 29.5,95.8333 27.5,94.5C 27.1667,93.5 26.5,92.8333 25.5,92.5C 25.573,90.9731 24.9063,89.9731 23.5,89.5C 23.573,87.9731 22.9063,86.9731 21.5,86.5C 12.0372,65.3657 15.0372,46.199 30.5,29C 50.403,12.6178 71.0697,11.4511 92.5,25.5 Z"/></g>
<g><path style="opacity:0.475" fill="#603816" d="M 94.5,15.5 C 96.0269,15.427 97.0269,16.0937 97.5,17.5C 95.9731,17.573 94.9731,16.9063 94.5,15.5 Z"/></g>
<g><path style="opacity:0.663" fill="#633a17" d="M 18.5,18.5 C 17.9202,20.7488 16.5869,22.4154 14.5,23.5C 15.0798,21.2512 16.4131,19.5846 18.5,18.5 Z"/></g>
<g><path style="opacity:1" fill="#cf7828" d="M 229.5,22.5 C 231.144,22.2865 232.644,22.6198 234,23.5C 234.667,37.1667 234.667,50.8333 234,64.5C 232.333,67.1667 230.667,67.1667 229,64.5C 228.186,50.4252 228.352,36.4252 229.5,22.5 Z"/></g>
<g><path style="opacity:0.82" fill="#7a471c" d="M 30.5,21.5 C 29.4154,23.5869 27.7488,24.9202 25.5,25.5C 26.5846,23.4131 28.2512,22.0798 30.5,21.5 Z"/></g>
<g><path style="opacity:0.643" fill="#5b3616" d="M 92.5,25.5 C 94.0269,25.427 95.0269,26.0937 95.5,27.5C 93.9731,27.573 92.9731,26.9063 92.5,25.5 Z"/></g>
<g><path style="opacity:1" fill="#c67327" d="M 141.5,43.5 C 140.891,46.8784 142.224,48.8784 145.5,49.5C 150.819,52.4749 155.653,51.8083 160,47.5C 160.483,46.552 160.649,45.552 160.5,44.5C 156.818,44.6653 153.152,44.4986 149.5,44C 147.987,41.5459 148.654,39.8793 151.5,39C 156.554,38.219 161.554,38.3857 166.5,39.5C 167.252,53.3414 160.586,59.1747 146.5,57C 136.716,52.3195 133.55,44.8195 137,34.5C 144.383,24.3799 153.05,23.0466 163,30.5C 163.986,32.9248 163.319,34.5915 161,35.5C 150.479,28.7243 143.979,31.391 141.5,43.5 Z"/></g>
<g><path style="opacity:1" fill="#ce7728" d="M 172.5,25.5 C 179.841,25.3337 187.174,25.5003 194.5,26C 196.658,27.3117 196.991,28.9783 195.5,31C 187.5,31.6667 179.5,31.6667 171.5,31C 170.156,28.8564 170.49,27.0231 172.5,25.5 Z"/></g>
<g><path style="opacity:1" fill="#d27929" d="M 214.5,39.5 C 214.427,41.0269 215.094,42.0269 216.5,42.5C 217.794,43.2899 218.961,44.2899 220,45.5C 220.697,41.4649 220.53,37.4649 219.5,33.5C 220.064,31.1807 220.564,28.8474 221,26.5C 222.333,25.1667 223.667,25.1667 225,26.5C 226.114,31.3907 226.614,36.3907 226.5,41.5C 226.333,45.8333 226.167,50.1667 226,54.5C 225.722,55.4158 225.222,56.0825 224.5,56.5C 222.784,56.3713 221.117,56.038 219.5,55.5C 214.924,50.0133 210.591,44.3467 206.5,38.5C 206.44,37.9569 206.107,37.6236 205.5,37.5C 204.504,43.4632 204.171,49.4632 204.5,55.5C 203.545,57.7099 202.045,58.0432 200,56.5C 199.192,46.4527 199.359,36.4527 200.5,26.5C 201.776,25.3554 203.109,25.3554 204.5,26.5C 208.084,30.683 211.418,35.0164 214.5,39.5 Z"/></g>
<g><path style="opacity:1" fill="#d87e2b" d="M 264.5,30.5 C 264.427,32.0269 265.094,33.0269 266.5,33.5C 271.574,50.2755 265.241,58.1088 247.5,57C 237.968,51.7481 235.135,43.9148 239,33.5C 244.559,26.3149 251.726,24.1482 260.5,27C 262.324,27.66 263.657,28.8267 264.5,30.5 Z"/></g>
<g><path style="opacity:0.702" fill="#603917" d="M 23.5,27.5 C 23.573,29.0269 22.9063,30.0269 21.5,30.5C 21.427,28.9731 22.0937,27.9731 23.5,27.5 Z"/></g>
<g><path style="opacity:1" fill="#f9f2dd" d="M 248.5,31.5 C 259.439,29.9397 264.272,34.6064 263,45.5C 259.578,52.2957 254.411,54.129 247.5,51C 240.541,43.9465 240.874,37.4465 248.5,31.5 Z"/></g>
<g><path style="opacity:0.427" fill="#553214" d="M 83.5,31.5 C 85.0269,31.427 86.0269,32.0937 86.5,33.5C 84.9731,33.573 83.9731,32.9063 83.5,31.5 Z"/></g>
<g><path style="opacity:0.357" fill="#4c2d12" d="M 264.5,30.5 C 265.906,30.9731 266.573,31.9731 266.5,33.5C 265.094,33.0269 264.427,32.0269 264.5,30.5 Z"/></g>
<g><path style="opacity:1" fill="#cc7627" d="M 172.5,38.5 C 180.174,38.3336 187.841,38.5003 195.5,39C 197.781,40.851 197.781,42.5177 195.5,44C 187.5,44.6667 179.5,44.6667 171.5,44C 170.156,41.8564 170.49,40.0231 172.5,38.5 Z"/></g>
<g><path style="opacity:0.694" fill="#5e3817" d="M 214.5,39.5 C 215.906,39.9731 216.573,40.9731 216.5,42.5C 215.094,42.0269 214.427,41.0269 214.5,39.5 Z"/></g>
<g><path style="opacity:0.435" fill="#593515" d="M 82.5,43.5 C 84.0269,43.427 85.0269,44.0937 85.5,45.5C 83.9731,45.573 82.9731,44.9063 82.5,43.5 Z"/></g>
<g><path style="opacity:0.749" fill="#7d491b" d="M 106.5,44.5 C 105.833,47.1667 104.167,48.8333 101.5,49.5C 102.833,47.5 104.5,45.8333 106.5,44.5 Z"/></g>
<g><path style="opacity:0.753" fill="#6d4019" d="M 141.5,43.5 C 142.377,45.7278 143.71,47.7278 145.5,49.5C 142.224,48.8784 140.891,46.8784 141.5,43.5 Z"/></g>
<g><path style="opacity:0.671" fill="#5c3616" d="M 47.5,47.5 C 47.573,49.0269 46.9063,50.0269 45.5,50.5C 45.427,48.9731 46.0937,47.9731 47.5,47.5 Z"/></g>
<g><path style="opacity:0.622" fill="#7f4918" d="M 206.5,38.5 C 205.833,44.1667 205.167,49.8333 204.5,55.5C 204.171,49.4632 204.504,43.4632 205.5,37.5C 206.107,37.6236 206.44,37.9569 206.5,38.5 Z"/></g>
<g><path style="opacity:1" fill="#cb7528" d="M 173.5,51.5 C 180.508,51.3337 187.508,51.5004 194.5,52C 196.658,53.3117 196.991,54.9783 195.5,57C 187.5,57.6667 179.5,57.6667 171.5,57C 170.62,55.6439 170.286,54.1439 170.5,52.5C 171.791,52.7373 172.791,52.404 173.5,51.5 Z"/></g>
<g><path style="opacity:0.345" fill="#573313" d="M 219.5,55.5 C 221.117,56.038 222.784,56.3713 224.5,56.5C 222.545,57.9302 220.879,57.5969 219.5,55.5 Z"/></g>
<g><path style="opacity:0.725" fill="#8b501b" d="M 98.5,68.5 C 93.1301,68.3921 87.7968,68.7255 82.5,69.5C 85.356,67.9942 88.5226,67.3275 92,67.5C 94.3608,67.5039 96.5274,67.8373 98.5,68.5 Z"/></g>
<g><path style="opacity:0.353" fill="#563214" d="M 190.5,76.5 C 188.784,76.6287 187.117,76.962 185.5,77.5C 186.879,75.4031 188.545,75.0698 190.5,76.5 Z"/></g>
<g><path style="opacity:0.439" fill="#593413" d="M 286.5,76.5 C 285.041,76.4326 283.708,76.7659 282.5,77.5C 282.62,76.4138 283.287,75.7472 284.5,75.5C 285.416,75.5427 286.083,75.8761 286.5,76.5 Z"/></g>
<g><path style="opacity:1" fill="#c47127" d="M 143.5,75.5 C 150.251,74.295 156.085,75.9616 161,80.5C 161.684,81.7839 161.517,82.9505 160.5,84C 158.833,84.6667 157.167,84.6667 155.5,84C 150.508,80.4776 145.841,80.8109 141.5,85C 142.167,85.6667 142.833,86.3333 143.5,87C 147.833,88 152.167,89 156.5,90C 164.5,95.3333 164.5,100.667 156.5,106C 150.686,108.169 145.019,107.835 139.5,105C 135.832,102.275 135.832,99.7749 139.5,97.5C 143.208,101.005 147.541,102.172 152.5,101C 156.041,99.9292 156.708,98.2626 154.5,96C 149.531,94.5397 144.531,93.2064 139.5,92C 136.208,89.5881 135.041,86.4214 136,82.5C 137.742,79.2543 140.242,76.921 143.5,75.5 Z"/></g>
<g><path style="opacity:1" fill="#c67327" d="M 185.5,77.5 C 187.117,76.962 188.784,76.6287 190.5,76.5C 191.598,77.6009 191.765,78.9343 191,80.5C 187.615,84.2171 184.615,88.2171 182,92.5C 181.667,96.8333 181.333,101.167 181,105.5C 179.688,107.658 178.022,107.991 176,106.5C 177.745,96.6229 174.745,88.6229 167,82.5C 165.798,80.3225 165.298,77.9892 165.5,75.5C 166.873,75.3433 168.207,75.51 169.5,76C 172.625,79.1129 175.625,82.2796 178.5,85.5C 180.856,82.8136 183.189,80.147 185.5,77.5 Z"/></g>
<g><path style="opacity:1" fill="#c87327" d="M 199.5,105.5 C 199.027,104.094 198.027,103.427 196.5,103.5C 194.992,100.92 195.659,98.9201 198.5,97.5C 202.967,101.578 207.967,102.411 213.5,100C 214.833,98.6667 214.833,97.3333 213.5,96C 208.184,95.1295 203.184,93.6295 198.5,91.5C 198.027,90.0937 197.027,89.427 195.5,89.5C 194.233,86.728 194.233,84.0613 195.5,81.5C 196.833,80.8333 197.833,79.8333 198.5,78.5C 199.347,77.0337 200.68,76.2004 202.5,76C 208.598,74.6534 214.098,75.8201 219,79.5C 219.494,81.1341 219.66,82.8008 219.5,84.5C 215.231,83.9501 211.064,82.9501 207,81.5C 199.826,82.0229 198.992,84.1896 204.5,88C 209.63,87.8842 214.297,89.2176 218.5,92C 222.218,101.361 218.885,106.528 208.5,107.5C 205.404,107.082 202.404,106.415 199.5,105.5 Z"/></g>
<g><path style="opacity:1" fill="#d07828" d="M 224.5,75.5 C 232.507,75.3336 240.507,75.5003 248.5,76C 249.833,77.6667 249.833,79.3333 248.5,81C 245.518,81.498 242.518,81.6646 239.5,81.5C 239.666,89.84 239.5,98.1733 239,106.5C 237.542,107.747 236.042,107.747 234.5,106.5C 233.502,98.1932 233.169,89.8599 233.5,81.5C 230.421,81.7399 227.421,81.4066 224.5,80.5C 223.334,78.8327 223.334,77.166 224.5,75.5 Z"/></g>
<g><path style="opacity:1" fill="#c87427" d="M 253.5,75.5 C 261.86,75.1688 270.193,75.5021 278.5,76.5C 279.859,78.306 279.525,79.806 277.5,81C 269.5,81.6667 261.5,81.6667 253.5,81C 252.248,79.1722 252.248,77.3388 253.5,75.5 Z"/></g>
<g><path style="opacity:1" fill="#d27a29" d="M 308.5,103.5 C 308.829,97.4632 308.496,91.4632 307.5,85.5C 306.893,85.6236 306.56,85.9569 306.5,86.5C 304.154,89.679 301.321,92.3456 298,94.5C 294.698,92.0347 291.532,89.368 288.5,86.5C 287.669,93.1419 287.169,99.8085 287,106.5C 284.546,108.013 282.879,107.346 282,104.5C 281.176,95.3238 281.343,86.3238 282.5,77.5C 283.708,76.7659 285.041,76.4326 286.5,76.5C 288.749,77.0798 290.415,78.4131 291.5,80.5C 292.5,83.5 294.5,85.5 297.5,86.5C 298.833,85.8333 300.167,85.1667 301.5,84.5C 303.262,83.7377 304.262,82.4044 304.5,80.5C 306.381,76.8057 309.214,75.4724 313,76.5C 314.949,86.5033 314.949,96.5033 313,106.5C 309.85,108.161 308.35,107.161 308.5,103.5 Z"/></g>
<g><path style="opacity:1" fill="#c37127" d="M 325.5,75.5 C 329.936,75.2101 334.27,75.7101 338.5,77C 340.414,78.4133 341.747,80.2466 342.5,82.5C 341.829,83.9458 340.662,84.6125 339,84.5C 336.092,82.8024 332.926,81.8024 329.5,81.5C 326.394,81.1028 324.061,82.2694 322.5,85C 323.167,85.6667 323.833,86.3333 324.5,87C 328.833,88 333.167,89 337.5,90C 345.5,95.3333 345.5,100.667 337.5,106C 330.248,108.633 323.748,107.466 318,102.5C 317.225,100.051 318.058,98.384 320.5,97.5C 326.145,102.411 331.811,102.577 337.5,98C 336.449,96.6152 335.116,95.6152 333.5,95C 327.576,95.0679 322.409,93.2346 318,89.5C 315.683,85.4071 316.183,81.7405 319.5,78.5C 321.604,77.4805 323.604,76.4805 325.5,75.5 Z"/></g>
<g><path style="opacity:1" fill="#c77327" d="M 100.5,80.5 C 100.427,82.0269 101.094,83.0269 102.5,83.5C 104.067,84.6808 104.901,86.3474 105,88.5C 105.812,96.222 105.478,103.889 104,111.5C 101.905,118.029 97.738,122.696 91.5,125.5C 90.4173,124.635 90.2506,123.635 91,122.5C 98.4989,111.484 100.499,99.4842 97,86.5C 91.2501,82.8938 87.2501,84.2271 85,90.5C 84.6667,96.8333 84.3333,103.167 84,109.5C 82.1224,116.284 78.1224,121.284 72,124.5C 71.5,124.167 71,123.833 70.5,123.5C 77.6961,112.652 80.5295,100.652 79,87.5C 79.2321,86.2625 79.7321,85.2625 80.5,84.5C 81.9063,84.0269 82.573,83.0269 82.5,81.5C 88.1974,76.6419 94.1974,76.3086 100.5,80.5 Z"/></g>
<g><path style="opacity:0.49" fill="#5f3816" d="M 198.5,78.5 C 197.833,79.8333 196.833,80.8333 195.5,81.5C 195.5,79.5 196.5,78.5 198.5,78.5 Z"/></g>
<g><path style="opacity:0.678" fill="#5d3716" d="M 100.5,80.5 C 101.906,80.9731 102.573,81.9731 102.5,83.5C 101.094,83.0269 100.427,82.0269 100.5,80.5 Z"/></g>
<g><path style="opacity:0.659" fill="#4d2e14" d="M 291.5,80.5 C 293.833,82.1667 295.833,84.1667 297.5,86.5C 294.5,85.5 292.5,83.5 291.5,80.5 Z"/></g>
<g><path style="opacity:0.447" fill="#593515" d="M 82.5,81.5 C 82.573,83.0269 81.9063,84.0269 80.5,84.5C 80.427,82.9731 81.0937,81.9731 82.5,81.5 Z"/></g>
<g><path style="opacity:0.569" fill="#663c18" d="M 304.5,80.5 C 304.262,82.4044 303.262,83.7377 301.5,84.5C 301.738,82.5956 302.738,81.2623 304.5,80.5 Z"/></g>
<g><path style="opacity:0.384" fill="#583314" d="M 21.5,86.5 C 22.9063,86.9731 23.573,87.9731 23.5,89.5C 22.0937,89.0269 21.427,88.0269 21.5,86.5 Z"/></g>
<g><path style="opacity:0.365" fill="#553112" d="M 66.5,87.5 C 68.5518,88.0527 68.8852,89.0527 67.5,90.5C 67.4431,89.391 67.1098,88.391 66.5,87.5 Z"/></g>
<g><path style="opacity:1" fill="#bd6d26" d="M 90.5,88.5 C 91.8221,88.33 92.9887,88.6634 94,89.5C 96.6745,99.7732 95.3412,109.44 90,118.5C 87.8878,121.284 85.2212,123.284 82,124.5C 81.5,124.167 81,123.833 80.5,123.5C 87.5401,113.675 90.3735,102.675 89,90.5C 89.7172,89.9558 90.2172,89.2891 90.5,88.5 Z"/></g>
<g><path style="opacity:0.655" fill="#573415" d="M 195.5,89.5 C 197.027,89.427 198.027,90.0937 198.5,91.5C 196.973,91.573 195.973,90.9063 195.5,89.5 Z"/></g>
<g><path style="opacity:1" fill="#c77326" d="M 253.5,88.5 C 261.86,88.1688 270.193,88.5021 278.5,89.5C 279.859,91.306 279.525,92.806 277.5,94C 269.5,94.6667 261.5,94.6667 253.5,94C 252.248,92.1722 252.248,90.3388 253.5,88.5 Z"/></g>
<g><path style="opacity:0.447" fill="#5a3515" d="M 23.5,89.5 C 24.9063,89.9731 25.573,90.9731 25.5,92.5C 24.0937,92.0269 23.427,91.0269 23.5,89.5 Z"/></g>
<g><path style="opacity:0.62" fill="#573415" d="M 31.5,93.5 C 33.0269,93.427 34.0269,94.0937 34.5,95.5C 32.9731,95.573 31.9731,94.9063 31.5,93.5 Z"/></g>
<g><path style="opacity:0.694" fill="#4f3015" d="M 27.5,94.5 C 29.5,95.8333 31.1667,97.5 32.5,99.5C 29.8333,98.8333 28.1667,97.1667 27.5,94.5 Z"/></g>
<g><path style="opacity:0.114" fill="#1b0f05" d="M 306.5,86.5 C 306.56,85.9569 306.893,85.6236 307.5,85.5C 308.496,91.4632 308.829,97.4632 308.5,103.5C 307.833,97.8333 307.167,92.1667 306.5,86.5 Z"/></g>
<g><path style="opacity:1" fill="#c87326" d="M 253.5,101.5 C 261.507,101.334 269.507,101.5 277.5,102C 280.167,103.667 280.167,105.333 277.5,107C 269.5,107.667 261.5,107.667 253.5,107C 252.248,105.172 252.248,103.339 253.5,101.5 Z"/></g>
<g><path style="opacity:0.329" fill="#4e2e12" d="M 196.5,103.5 C 198.027,103.427 199.027,104.094 199.5,105.5C 197.973,105.573 196.973,104.906 196.5,103.5 Z"/></g>
<g><path style="opacity:0.612" fill="#693e18" d="M 101.5,121.5 C 101.586,122.496 101.252,123.329 100.5,124C 101.448,124.483 102.448,124.649 103.5,124.5C 102.432,125.434 101.099,125.768 99.5,125.5C 99.2291,123.62 99.8958,122.287 101.5,121.5 Z"/></g>
</svg>
