<?xml version="1.0" encoding="utf-8"?>
<!-- Generator: Adobe Illustrator 25.4.1, SVG Export Plug-In . SVG Version: 6.00 Build 0)  -->
<svg version="1.0" id="katman_1" xmlns="http://www.w3.org/2000/svg" xmlns:xlink="http://www.w3.org/1999/xlink" x="0px" y="0px"
	 viewBox="0 0 1500 1200" style="enable-background:new 0 0 1500 1200;" xml:space="preserve" width="1200" height="800">
<style type="text/css">
	.st0{fill:#FFD100;}
	.st1{fill:#212721;}
</style>
<path class="st0" d="M528.3,588.6c-26.4,0-26.4,6.2-26.4,9.1v5c0,2.6,0,8.9,26.4,8.9c26.4,0,26.4-6.2,26.4-8.9v-5
	C554.4,594.9,554.4,588.6,528.3,588.6z M689,602.5v-40.3c0-2.6,0-8.9-26.4-8.9s-26.4,6.2-26.4,8.9v40.3c0,2.6,0,8.9,26.4,8.9
	S689,605.2,689,602.5z M864.3,611.6c26.4,0,26.4-6.2,26.4-8.9v-5c0-2.6,0-9.1-26.4-9.1c-26.4,0-26.4,6.2-26.4,9.1v5
	C837.9,605.4,837.9,611.6,864.3,611.6z"/>
<path class="st0" d="M1292.9,407.1H207.6c-13.4,0-24.2,10.8-24.2,24.2V769c0,13.4,10.8,24.2,24.2,24.2h1085.3
	c13.4,0,24.2-10.8,24.2-24.2V431.3C1316.9,417.8,1306.1,407.1,1292.9,407.1z M809.4,592.9c0-6.2,0-18.5,54.7-18.5
	c10.8,0,19.4,0.5,26.4,1.2v-13.4c0-2.6,0-8.9-26.4-8.9c-24.2,0-24.2,6.2-24.2,8.9c0,1.9-1.4,3.4-3.4,3.4h-21.8
	c-1.9,0-3.4-1.4-3.4-3.4v-4.6c0-6.2,0-18.5,52.8-18.5c54.7,0,54.7,12.2,54.7,18.5v49.6c0,6.2,0,18.5-54.7,18.5
	c-54.7,0-54.7-12.2-54.7-18.5V592.9z M352.2,694.6c0,1.2-1,1.9-1.9,1.9h-8.2c-1.2,0-1.9-1-1.9-1.9v-20.1c0-1.2,1-1.9,1.9-1.9h8.2
	c1.2,0,1.9,1,1.9,1.9V694.6z M392.7,694.4c0,1.2-1,2.2-2.2,2.2h-9.4c-1.2,0-2.2-1-2.2-2.2v-19.9c0-1.2,1-2.2,2.2-2.2h9.4
	c1.2,0,2.2,1,2.2,2.2V694.4z M433.5,694.4c0,1.2-1,2.2-2.2,2.2h-10.8c-1.2,0-2.2-1-2.2-2.2v-19.7c0-1.2,1-2.2,2.2-2.2h10.8
	c1.2,0,2.2,1,2.2,2.2V694.4z M449.6,607.3c0,6.2,0,18.5-54.7,18.5s-54.7-12.2-54.7-18.5v-8.4c0-1.9,1.4-3.4,3.4-3.4h21.8
	c1.9,0,3.4,1.4,3.4,3.4v4.3c0,2.9,1,8.6,26.4,8.6c26.4,0,26.4-6.2,26.4-8.9v-95.7c0-1.9,1.4-3.4,3.4-3.4h21.8c1.9,0,3.4,1.4,3.4,3.4
	L449.6,607.3z M474.3,694.2c0,1.2-1,2.2-2.2,2.2h-12c-1.2,0-2.2-1-2.2-2.2v-19.7c0-1.2,1-2.2,2.2-2.2h12c1.2,0,2.2,1,2.2,2.2V694.2z
	 M514.8,694.2c0,1.2-1,2.4-2.4,2.4H499c-1.2,0-2.4-1-2.4-2.4v-19.4c0-1.2,1-2.4,2.4-2.4h13.4c1.2,0,2.4,1,2.4,2.4V694.2z
	 M473.3,607.3v-14.4c0-6.2,0-18.5,54.7-18.5c10.8,0,19.4,0.5,26.4,1.2v-13.4c0-2.6,0-8.9-26.4-8.9c-24.5,0-24.5,6.2-24.5,8.9
	c0,1.9-1.4,3.4-3.4,3.4h-21.8c-1.9,0-3.4-1.4-3.4-3.4v-4.6c0-6.2,0-18.5,52.8-18.5c54.7,0,54.7,12.2,54.7,18.5v49.6
	c0,6.2,0,18.5-54.7,18.5C473.3,625.8,473.3,613.6,473.3,607.3z M555.6,694.2c0,1.4-1.2,2.4-2.4,2.4h-14.6c-1.4,0-2.4-1.2-2.4-2.4
	V675c0-1.4,1.2-2.4,2.4-2.4h14.6c1.4,0,2.4,1.2,2.4,2.4V694.2z M596.4,693.9c0,1.4-1.2,2.6-2.6,2.6h-16.1c-1.4,0-2.6-1.2-2.6-2.6
	V675c0-1.4,1.2-2.6,2.6-2.6h16.1c1.4,0,2.6,1.2,2.6,2.6V693.9z M607.9,607.1v-100c0-1.9,1.4-3.4,3.4-3.4h21.8c1.9,0,3.4,1.4,3.4,3.4
	v33.1c7-0.7,15.6-1.2,26.4-1.2c54.7,0,54.7,12.2,54.7,18.5v49.6c0,6.2,0,18.5-54.7,18.5C607.9,625.8,607.9,613.3,607.9,607.1z
	 M636.9,693.9c0,1.4-1.2,2.6-2.6,2.6H617c-1.4,0-2.6-1.2-2.6-2.6V675c0-1.4,1.2-2.6,2.6-2.6h17.3c1.4,0,2.6,1.2,2.6,2.6V693.9z
	 M677.7,693.7c0,1.4-1.2,2.6-2.6,2.6h-18.7c-1.4,0-2.6-1.2-2.6-2.6V675c0-1.4,1.2-2.6,2.6-2.6H675c1.4,0,2.6,1.2,2.6,2.6V693.7z
	 M718.5,693.7c0,1.7-1.2,2.9-2.9,2.9h-19.9c-1.7,0-2.9-1.2-2.9-2.9v-18.5c0-1.7,1.2-2.9,2.9-2.9h19.9c1.7,0,2.9,1.2,2.9,2.9V693.7z
	 M759.2,693.7c0,1.7-1.2,2.9-2.9,2.9H735c-1.7,0-2.9-1.2-2.9-2.9v-18.2c0-1.7,1.2-2.9,2.9-2.9h21.1c1.7,0,2.9,1.2,2.9,2.9v18.2
	H759.2z M770.8,620.5c0,1.9-1.4,3.4-3.4,3.4h-21.8c-1.9,0-3.4-1.4-3.4-3.4v-62.8c0-6.2,0-18.5,54.7-18.5c1.9,0,3.4,1.4,3.4,3.4v7.4
	c0,1.9-1.4,3.4-3.4,3.4c-26.4,0-26.4,6.2-26.4,8.9v58.3H770.8z M1062.2,691.3c0,2.9-2.4,5.3-5.3,5.3H776.5c-2.9,0-5.3-2.4-5.3-5.3
	v-13.4c0-2.9,2.4-5.3,5.3-5.3h280.4c2.9,0,5.3,2.4,5.3,5.3L1062.2,691.3L1062.2,691.3z M1062.4,580c0,3.8-3.1,7-7,7h-35
	c-23.7,0-42.9-19.9-41.7-43.9c1-22.3,19.9-39.8,42.5-39.8h34.3c3.8,0,7,3.1,7,7.2c0,3.8-3.4,7-7.2,7h-34.8
	c-14.9,0-27.1,11.8-27.8,26.4c-1,16.1,12.2,29.5,28.3,29.5h25.7l0,0c1,0,1.7-0.7,1.7-1.7l0,0v-17.5c0-1-0.7-1.7-1.7-1.7l0,0h-12.2
	c-3.8,0-7-3.1-7-7.2c0-3.8,3.4-7,7.2-7h20.6c3.8,0,7,3.1,7,7V580H1062.4z M1159.8,579.7c0,2.4-1.2,5-3.4,6.2c-1.2,0.7-2.4,1-3.6,1
	c-1.9,0-3.6-0.7-5-2.2l-55.4-55.4c-0.7-0.7-2.2-0.2-2.2,1v49.4c0,3.8-3.1,7.2-7,7.2c-3.8,0-7.2-3.1-7.2-7v-69.6c0-2.4,1.2-4.8,3.4-6
	c2.9-1.7,6.5-1.2,8.6,1l55.6,55.6c0.7,0.7,2.2,0.2,2.2-1v-49.6c0-3.8,3.1-7.2,6.7-7.2c3.8,0,7.2,3.1,7.2,7V579.7z"/>
<path class="st1" d="M797.1,553.4c1.9,0,3.4-1.4,3.4-3.4v-7.4c0-1.9-1.4-3.4-3.4-3.4c-54.7,0-54.7,12.2-54.7,18.5v62.8
	c0,1.9,1.4,3.4,3.4,3.4h21.8c1.9,0,3.4-1.4,3.4-3.4v-58.3C770.8,559.6,770.8,553.4,797.1,553.4z M582.9,607.3v-49.6
	c0-6.2,0-18.5-54.7-18.5c-52.8,0-52.8,12.2-52.8,18.5v4.6c0,1.9,1.4,3.4,3.4,3.4h21.8c1.9,0,3.4-1.4,3.4-3.4c0-2.6,0-8.9,24.5-8.9
	c26.4,0,26.4,6.2,26.4,8.9v13.4c-7-0.7-15.6-1.2-26.4-1.2c-54.7,0-54.7,12.2-54.7,18.5v14.4c0,6.2,0,18.5,54.7,18.5
	C582.9,625.8,582.9,613.6,582.9,607.3z M554.4,602.5c0,2.6,0,8.9-26.4,8.9c-26.4,0-26.4-6.2-26.4-8.9v-5c0-2.6,0-9.1,26.4-9.1
	c26.4,0,26.4,6.2,26.4,9.1V602.5z M717.3,607.1v-49.4c0-6.2,0-18.5-54.7-18.5c-10.8,0-19.4,0.5-26.4,1.2v-33.3
	c0-1.9-1.4-3.4-3.4-3.4H611c-1.9,0-3.4,1.4-3.4,3.4v100c0,6.2,0,18.5,54.7,18.5C717.3,625.8,717.3,613.3,717.3,607.1z M636.4,602.5
	v-40.3c0-2.6,0-8.9,26.4-8.9s26.4,6.2,26.4,8.9v40.3c0,2.6,0,8.9-26.4,8.9S636.4,605.2,636.4,602.5z M864.3,625.8
	c54.7,0,54.7-12.2,54.7-18.5v-49.6c0-6.2,0-18.5-54.7-18.5c-52.8,0-52.8,12.2-52.8,18.5v4.6c0,1.9,1.4,3.4,3.4,3.4h21.8
	c1.9,0,3.4-1.4,3.4-3.4c0-2.6,0-8.9,24.2-8.9c26.4,0,26.4,6.2,26.4,8.9v13.4c-7-0.7-15.6-1.2-26.4-1.2c-54.7,0-54.7,12.2-54.7,18.5
	v14.4C809.4,613.6,809.4,625.8,864.3,625.8z M837.9,597.5c0-2.6,0-9.1,26.4-9.1c26.4,0,26.4,6.2,26.4,9.1v5c0,2.6,0,8.9-26.4,8.9
	c-26.4,0-26.4-6.2-26.4-8.9V597.5z M446,504h-21.8c-1.9,0-3.4,1.4-3.4,3.4v95.5c0,2.6,0,8.9-26.4,8.9c-25.2,0-26.1-5.8-26.4-8.6
	v-4.3c0-1.9-1.4-3.4-3.4-3.4h-21.8c-1.9,0-3.4,1.4-3.4,3.4v8.4c0,6.2,0,18.5,54.7,18.5s54.7-12.2,54.7-18.5v-100
	C449.6,505.4,447.9,504,446,504z M350,672.3h-8.2c-1.2,0-1.9,1-1.9,1.9v20.1c0,1.2,1,1.9,1.9,1.9h8.2c1.2,0,1.9-1,1.9-1.9v-20.1
	C352.2,673.3,351.2,672.3,350,672.3z M390.8,672.3h-9.4c-1.2,0-2.2,1-2.2,2.2v19.9c0,1.2,1,2.2,2.2,2.2h9.4c1.2,0,2.2-1,2.2-2.2
	v-19.9C392.7,673.3,391.8,672.3,390.8,672.3z M431.4,672.3h-10.8c-1.2,0-2.2,1-2.2,2.2v19.7c0,1.2,1,2.2,2.2,2.2h10.8
	c1.2,0,2.2-1,2.2-2.2v-19.7C433.5,673.3,432.6,672.3,431.4,672.3z M471.9,672.3h-12c-1.2,0-2.2,1-2.2,2.2v19.7c0,1.2,1,2.2,2.2,2.2
	h12c1.2,0,2.2-1,2.2-2.2v-19.7C474.3,673.3,473.1,672.3,471.9,672.3z M512.7,672.3h-13.4c-1.2,0-2.4,1-2.4,2.4v19.4
	c0,1.2,1,2.4,2.4,2.4h13.4c1.2,0,2.4-1,2.4-2.4v-19.4C514.8,673.5,513.9,672.3,512.7,672.3z M553.2,672.3h-14.6
	c-1.4,0-2.4,1.2-2.4,2.4v19.2c0,1.4,1.2,2.4,2.4,2.4h14.6c1.4,0,2.4-1.2,2.4-2.4v-19.2C555.6,673.5,554.4,672.3,553.2,672.3z
	 M593.7,672.3h-16.1c-1.4,0-2.6,1.2-2.6,2.6v18.9c0,1.4,1.2,2.6,2.6,2.6h16.1c1.4,0,2.6-1.2,2.6-2.6V675
	C596.4,673.5,595.2,672.3,593.7,672.3z M634.3,672.3H617c-1.4,0-2.6,1.2-2.6,2.6v18.9c0,1.4,1.2,2.6,2.6,2.6h17.3
	c1.4,0,2.6-1.2,2.6-2.6V675C636.9,673.5,636,672.3,634.3,672.3z M675,672.3h-18.7c-1.4,0-2.6,1.2-2.6,2.6v18.7
	c0,1.4,1.2,2.6,2.6,2.6H675c1.4,0,2.6-1.2,2.6-2.6V675C677.7,673.5,676.5,672.3,675,672.3z M715.6,672.3h-19.9
	c-1.7,0-2.9,1.2-2.9,2.9v18.5c0,1.7,1.2,2.9,2.9,2.9h19.9c1.7,0,2.9-1.2,2.9-2.9v-18.5C718.5,673.8,717.3,672.3,715.6,672.3z
	 M756.1,672.3H735c-1.7,0-2.9,1.2-2.9,2.9v18.2c0,1.7,1.2,2.9,2.9,2.9h21.1c1.7,0,2.9-1.2,2.9-2.9v-18.2
	C759.2,673.8,757.8,672.3,756.1,672.3z M1056.9,672.3H776.5c-2.9,0-5.3,2.4-5.3,5.3V691c0,2.9,2.4,5.3,5.3,5.3h280.4
	c2.9,0,5.3-2.4,5.3-5.3v-13.4C1062.2,674.7,1059.8,672.3,1056.9,672.3z M1152.8,503.2c-3.8,0-6.7,3.4-6.7,7.2v49.4
	c0,1.2-1.4,1.7-2.2,1l-55.9-55.4c-2.2-2.2-5.8-2.6-8.6-1c-2.2,1.2-3.4,3.6-3.4,6V580c0,3.8,3.1,7,7.2,7c3.8,0,7-3.4,7-7.2v-49.4
	c0-1.2,1.4-1.7,2.2-1L1148,585c1.4,1.4,3.1,2.2,5,2.2c1.2,0,2.4-0.2,3.6-1c2.2-1.2,3.4-3.6,3.4-6.2v-69.8
	C1159.8,506.4,1156.7,503.2,1152.8,503.2z M1055.2,538.3h-20.6c-3.8,0-7.2,3.1-7.2,7s3.1,7.2,7,7.2h12.2l0,0c1,0,1.7,0.7,1.7,1.7
	v17.5l0,0c0,1-0.7,1.7-1.7,1.7l0,0h-25.7c-16.3,0-29.3-13.2-28.3-29.5c0.7-14.6,13-26.4,27.8-26.4h34.5c3.8,0,7.2-3.1,7.2-7
	c0-3.8-3.1-7.2-7-7.2h-34.3c-22.3,0-41.3,17.5-42.5,39.8c-1.2,24,18,43.9,41.7,43.9h34.8c3.8,0,7-3.1,7-7v-34.8
	C1062.4,541.4,1059.3,538.3,1055.2,538.3z"/>
</svg>
