<?xml version="1.0" encoding="UTF-8" standalone="no"?>
<svg
   xmlns:dc="http://purl.org/dc/elements/1.1/"
   xmlns:cc="http://creativecommons.org/ns#"
   xmlns:rdf="http://www.w3.org/1999/02/22-rdf-syntax-ns#"
   xmlns:svg="http://www.w3.org/2000/svg"
   xmlns="http://www.w3.org/2000/svg"
   viewBox="0 0 466.66666 197.88"
   height="800"
   width="1200"
   xml:space="preserve"
   id="svg2"
   version="1.1"><metadata
     id="metadata8"><rdf:RDF><cc:Work
         rdf:about=""><dc:format>image/svg+xml</dc:format><dc:type
           rdf:resource="http://purl.org/dc/dcmitype/StillImage" /></cc:Work></rdf:RDF></metadata><defs
     id="defs6" /><g
     transform="matrix(1.3333333,0,0,-1.3333333,0,197.88)"
     id="g10"><g
       transform="scale(0.1)"
       id="g12"><path
         id="path14"
         style="fill:#100f0d;fill-opacity:1;fill-rule:nonzero;stroke:none"
         d="m 1787.19,384.43 h 35.89 V 88.8906 h -35.89 V 384.43" /><path
         id="path16"
         style="fill:#100f0d;fill-opacity:1;fill-rule:nonzero;stroke:none"
         d="m 1688.15,135.512 c -10.85,-13.102 -27.83,-19.293 -49.01,-19.293 -20.98,0 -38.07,8.511 -48.28,21.019 -10.94,13.09 -17.19,34.203 -17.19,59.301 0,25.602 6.24,46.66 17.19,59.172 10.2,12.5 27.29,21.059 48.28,21.059 21.18,0 38.16,-8.559 49.01,-21.059 10.29,-12.512 16.49,-33.57 16.49,-59.172 0,-25.098 -6.2,-48.48 -16.49,-61.027 m -49.01,173.16 c -31.28,0 -59.22,-10.781 -75.67,-29.594 -17.14,-19.387 -25.61,-48.957 -25.61,-82.539 0,-35.93 10.85,-65.5 27.28,-84.269 17.11,-17.0708 42.72,-27.4106 73.99,-27.4106 31.96,0 59.3,10.3398 76.33,28.9996 16.57,17.192 27.44,46.762 27.44,82.692 0,33.578 -10.87,63.148 -27.44,82.539 -17.02,18.801 -44.36,29.582 -76.32,29.582" /><path
         id="path18"
         style="fill:#100f0d;fill-opacity:1;fill-rule:nonzero;stroke:none"
         d="m 954.574,276.77 c 17.106,0 31.86,-3.942 40.422,-12.508 8.584,-8.551 17.104,-21.063 17.104,-34.141 h 35.91 c 0,23.277 -10.78,44.391 -27.92,57.481 -14.25,12.546 -37.594,21.07 -65.516,21.07 -29.058,0 -54.672,-10.781 -71.765,-31.902 -16.543,-18.801 -25.059,-48.379 -25.059,-82.54 0,-33.621 8.516,-60.98 25.059,-80.378 14.882,-18.6606 38.164,-28.9926 67.82,-28.9926 27.289,0 50.651,7.9609 67.731,21.0506 16.54,12.551 27.34,33.629 29.65,58.692 h -34.12 c -1.79,-14.274 -10.31,-27.364 -21.199,-35.832 -8.461,-6.36 -23.308,-10.301 -39.851,-10.301 -17.024,0 -34.18,8.472 -42.117,21.07 -8.551,12.461 -14.758,31.902 -14.758,57 0,25.602 6.207,46.66 16.492,59.172 8.516,12.5 25.574,21.059 42.117,21.059" /><path
         id="path20"
         style="fill:#100f0d;fill-opacity:1;fill-rule:nonzero;stroke:none"
         d="M 661.238,384.43 H 435.125 V 348.5 h 92.832 V 88.8789 h 40.41 V 348.5 h 92.871 v 35.93" /><path
         id="path22"
         style="fill:#100f0d;fill-opacity:1;fill-rule:nonzero;stroke:none"
         d="m 1484.82,279.078 c -3.98,8.524 -14.24,18.813 -25.07,23.383 -10.88,4.039 -25.58,6.211 -42.12,6.211 -12.55,0 -27.26,-4.531 -38.11,-10.781 -10.84,-4 -21.08,-14.821 -29.66,-27.371 v 31.941 h -33.6 V 88.8906 h 35.81 V 209.012 c 0,21.117 6.37,38.136 16.61,50.687 8.57,10.832 25.68,17.082 46.68,17.082 14.78,0 27.3,-3.941 33.52,-12.511 6.88,-8.551 10.88,-23.321 10.88,-44.489 V 88.8906 h 35.85 v 128.6874 8.5 c 0,14.871 -2.21,27.332 -3.94,33.621 -0.02,6.789 -4.59,14.813 -6.85,19.379" /><path
         id="path24"
         style="fill:#100f0d;fill-opacity:1;fill-rule:nonzero;stroke:none"
         d="m 2019.67,135.512 c -10.92,-13.102 -27.37,-19.293 -48.38,-19.293 -21.65,0 -38.19,8.511 -49.07,21.019 -10.25,13.09 -16.47,34.203 -16.47,59.301 0,25.602 6.21,46.66 16.47,59.172 10.88,12.5 27.42,21.059 49.07,21.059 21.01,0 37.46,-8.559 48.38,-21.059 10.2,-12.512 17.08,-33.57 17.08,-59.172 0,-25.098 -6.88,-48.48 -17.08,-61.027 m -48.38,173.16 c -31.95,0 -59.32,-10.781 -76.4,-29.594 -17.02,-19.387 -25.1,-48.957 -25.1,-82.539 0,-35.93 10.28,-65.5 27.42,-84.269 16.54,-17.0708 42.13,-27.4106 74.08,-27.4106 31.25,0 58.59,10.3398 75.7,28.9996 17.08,17.192 27.33,46.762 27.33,82.692 0,33.578 -10.25,63.148 -27.33,82.539 -17.12,18.801 -44.46,29.582 -75.7,29.582" /><path
         id="path26"
         style="fill:#100f0d;fill-opacity:1;fill-rule:nonzero;stroke:none"
         d="m 671.551,213.578 c 0,18.801 8.535,35.934 17.051,46.113 8.558,10.829 23.351,17.079 40.535,17.079 16.445,0 33.539,-6.25 42.101,-17.079 8.496,-10.179 16.41,-27.312 16.41,-46.113 z m 57.578,95.094 c -29.711,0 -53.09,-10.781 -70.094,-31.902 -16.547,-18.801 -25.051,-48.379 -25.051,-84.399 0,-34.019 8.504,-61.332 25.051,-80.109 17.004,-17.0706 40.383,-27.4026 70.094,-27.4026 25.023,0 46.012,6.289 63.105,18.7426 17.192,12.609 27.364,31.898 31.965,53.07 h -36.551 c -1.621,-13.192 -10.199,-23.434 -18.757,-29.742 -8.516,-4.532 -23.309,-8.469 -35.86,-8.469 -18.812,0 -35.859,6.258 -46.679,17.039 -7.993,10.238 -14.793,27.371 -14.793,48.48 h 152.652 l 1.68,6.25 v 8.52 c 0,33.621 -8.489,63.301 -25.078,82.012 -17.114,17.129 -42.137,27.91 -71.684,27.91" /><path
         id="path28"
         style="fill:#100f0d;fill-opacity:1;fill-rule:nonzero;stroke:none"
         d="m 1252.47,279.078 c -4.04,8.524 -14.28,18.813 -25.1,23.383 -10.81,4.039 -25.52,6.211 -42.07,6.211 -12.55,0 -27.4,-4.531 -40.51,-10.781 -10.25,-4 -21.07,-14.821 -25.06,-25.063 V 384.43 h -35.85 V 88.8906 h 35.85 V 215.828 c 0,16.551 6.26,33.684 16.55,43.871 10.84,10.832 27.93,17.082 46.67,17.082 14.76,0 27.37,-3.941 33.61,-12.511 6.86,-8.551 10.81,-23.321 10.81,-44.489 V 88.8906 h 35.89 v 128.6874 8.5 c 0,14.871 -2.25,27.332 -3.93,33.621 0,6.789 -4.53,14.813 -6.86,19.379" /><path
         id="path30"
         style="fill:#100f0d;fill-opacity:1;fill-rule:nonzero;stroke:none"
         d="m 2769.76,213.578 -34.24,8.563 c -12.55,1.718 -21.02,6.25 -25.05,10.238 -4.54,2.351 -6.26,8.562 -6.26,14.762 0,8.57 4.04,19.347 10.29,23.379 6.2,3.992 19.39,6.25 31.89,6.25 12.5,0 25.11,-3.942 33.57,-10.282 8.56,-4.429 14.76,-14.777 14.76,-23.289 h 35.94 c 0,18.86 -8.56,35.879 -23.28,48.391 -14.91,10.871 -35.88,17.082 -60.99,17.082 -23.42,0 -44.45,-6.211 -56.9,-17.082 -13.13,-10.828 -21.22,-27.328 -21.22,-44.449 0,-17.02 4.04,-31.313 12.61,-39.813 8.61,-8.566 25.06,-17.09 46.09,-21.129 l 40.44,-10.879 c 12.56,-2.16 23.34,-6.148 27.32,-10.718 4.67,-3.993 6.31,-10.25 6.31,-16.543 0,-8.52 -6.31,-19.289 -14.82,-23.34 -8.56,-3.93 -21.06,-8.5 -35.88,-8.5 -16.45,0 -31.31,4.57 -39.86,10.722 -8.53,6.309 -12.52,18.809 -12.52,31.411 h -36.45 c 0,-22.84 8.6,-42.133 23.42,-54.743 13.03,-12.4488 35.78,-18.7496 61.47,-18.7496 27.27,0 50.79,6.3008 67.73,18.7496 14.33,10.243 22.8,27.43 22.8,48.391 0,17.172 -6.26,31.988 -14.82,40.371 -7.99,8.649 -27.39,16.629 -52.35,21.207" /><path
         id="path32"
         style="fill:#100f0d;fill-opacity:1;fill-rule:nonzero;stroke:none"
         d="m 2256.04,135.512 c -8.56,-13.102 -27.42,-19.293 -48.53,-19.293 -18.71,0 -35.84,8.511 -46.71,21.019 -7.89,13.09 -14.72,34.203 -14.72,56.992 0,25.54 6.84,48.969 17.03,61.481 8.37,12.309 25.11,20.68 45.61,20.93 l -1.21,0.14 h 2.3 l -1.09,-0.14 c 20.49,-0.243 37.23,-8.621 47.33,-20.93 10.81,-12.512 17.16,-35.941 17.16,-61.481 -0.01,-25.058 -6.35,-46.171 -17.17,-58.718 m 14.76,139 c -8.51,10.828 -21.01,21.066 -31.3,25.636 -8.56,3.993 -23.43,8.524 -35.83,8.524 -27.96,0 -53.12,-10.781 -70.14,-31.902 -16.49,-18.801 -25.05,-46.649 -25.05,-80.231 0,-33.66 8.56,-61.027 25.05,-82.687 17.02,-18.6606 40.45,-28.9926 70.14,-28.9926 12.41,0 27.27,4.0195 37.48,7.9609 10.76,4.5899 21.15,13.0897 29.66,23.3907 V 86.6211 c 0,-21.1094 -6.2,-35.9297 -14.76,-44.5 -8.56,-8.0195 -27.42,-12.5 -48.53,-12.5 -17.08,0 -33.53,4.4805 -42.09,8.5703 -8.56,3.9297 -12.5,14.7695 -12.5,25.0586 v 2.2617 h -35.88 V 63.25 c 0,-18.8711 7.98,-35.9492 22.79,-46.2305 C 2154.61,6.28906 2177.94,0 2205.31,0 c 34.2,0 61.56,8.60156 78.74,23.4219 14.03,12.457 22.59,38.0469 22.59,71.7695 V 302.449 h -35.83 v -27.937 h -0.01" /><path
         id="path34"
         style="fill:#100f0d;fill-opacity:1;fill-rule:nonzero;stroke:none"
         d="m 2479.81,213.578 c 0,18.801 8.62,35.934 17.08,46.113 8.56,10.829 23.33,17.079 40.45,17.079 16.55,0 33.58,-6.25 42.14,-17.079 8.56,-10.179 16.54,-27.312 16.54,-46.113 z m 57.53,95.094 c -29.64,0 -52.92,-10.781 -70.04,-31.902 -16.54,-18.801 -25.1,-48.379 -25.1,-84.399 0,-34.019 8.56,-61.332 25.1,-80.109 17.12,-17.0706 40.4,-27.4026 70.04,-27.4026 25.11,0 46.12,6.289 63.3,18.7426 17.07,12.609 27.32,31.898 31.84,53.07 h -36.46 c -1.73,-13.192 -10.29,-23.434 -18.81,-29.742 -8.61,-4.532 -23.33,-8.469 -35.83,-8.469 -18.86,0 -35.94,6.258 -46.8,17.039 -7.94,10.238 -14.78,27.371 -14.78,48.48 h 152.68 l 1.67,6.25 v 8.52 c 0,33.621 -8.44,63.301 -25.05,82.012 -17.12,17.129 -42.14,27.91 -71.76,27.91" /><path
         id="path36"
         style="fill:#100f0d;fill-opacity:1;fill-rule:nonzero;stroke:none"
         d="m 2361.92,302.461 h 35.97 V 88.8906 h -35.97 V 302.461" /><path
         id="path38"
         style="fill:#100f0d;fill-opacity:1;fill-rule:nonzero;stroke:none"
         d="m 2361.72,388.48 h 35.98 v -42.3 h -35.98 v 42.3" /><path
         id="path40"
         style="fill:#100f0d;fill-opacity:1;fill-rule:nonzero;stroke:none"
         d="m 2934.66,764.531 c -167.67,59.356 -425.17,252.589 -434.84,292.699 94.76,7.22 296.84,61 275.14,234.25 l 241.52,-1.68 z m -570.31,395.449 -24.9,159.56 c 84.36,50.5 356.19,19.96 325.65,-64.16 -30.55,-84.2 -295.21,-120.36 -300.75,-95.4 z m -570.57,-197.925 108.24,250.565 164.3,-250.565 z m 912.21,445.705 c -165.95,57.67 -355.19,40.11 -506.03,-6.46 L 2296.94,845.543 1879.07,1424.54 1576.73,766.168 1489.3,1416.61 1203.03,884.016 C 1065.78,1074.16 934.281,1324.24 698.477,1404.52 l 2.062,-483.516 c -0.711,3.894 -9.973,21.984 -13.965,28.332 -48.511,87.834 -211.59,139.544 -326.922,178.984 -292.2887,100.06 -203.035,202.89 -44.617,227.48 110.586,17.12 235.992,-2.69 314.727,-51.81 l 40.457,117.99 C 449.355,1538.25 -41.5859,1505.79 37.9688,1200.29 83.9336,1023.7 456.246,998.492 544.227,895.242 c 7.386,-8.656 17.386,-20.969 22.222,-32.179 6.543,-15.149 8.641,-32.618 1.762,-54.645 l -4.723,-18.223 c -3.144,-6.402 -6.711,-12.66 -9.254,-15.777 -56.312,-71.34 -169.55,-74.078 -273.129,-61.48 -118.851,14.48 -225.0191,73.07 -231.1831,86.824 L 0,674.258 c 187.801,-101.492 544.219,-161.442 677.273,25.387 16.45,23.183 16.032,27.23 31.114,61.863 l 2.855,-179.852 138.844,2.453 -20.633,584.871 C 993.625,966.996 1140.55,773.34 1259.03,597.719 c 2.69,-3.895 -3.95,54.531 153.23,425.831 l 70.58,-441.495 h 146.42 l 114.2,263.472 399.34,-1.125 176.91,-263.754 140.86,0.192 -71.39,421.9 c 88.22,-122.713 332.11,-284.748 523.84,-352.181 l -12.91,-72.899 138.68,-3.219 122.05,720.229 293.41,-3.18 45.75,117.85 -794.01,-1.58" /><path
         id="path42"
         style="fill:#100f0d;fill-opacity:1;fill-rule:nonzero;stroke:none"
         d="m 3146.79,574.438 v 53.097 h -20.01 v 7.121 h 47.77 v -7.121 h -19.87 v -53.097 h -7.89" /><path
         id="path44"
         style="fill:#100f0d;fill-opacity:1;fill-rule:nonzero;stroke:none"
         d="m 3182.73,574.438 v 60.218 h 11.83 l 14.37,-42.574 2.9,-8.898 3.23,9.621 14.66,41.851 h 10.55 v -60.218 h -7.76 v 50.449 l -17.61,-50.449 h -7.12 l -17.36,51.035 v -51.035 h -7.69" /></g></g></svg>